
<svg width="100" height="100" viewBox="0 0 100 100" fill="none" xmlns="http://www.w3.org/2000/svg">
  <rect width="100" height="100" rx="50" fill="#EEF2FF"/>
  <path d="M70 35H30C27.25 35 25 37.25 25 40V60C25 62.75 27.25 65 30 65H70C72.75 65 75 62.75 75 60V40C75 37.25 72.75 35 70 35ZM32.5 60C30.85 60 29.5 58.65 29.5 57C29.5 55.35 30.85 54 32.5 54C34.15 54 35.5 55.35 35.5 57C35.5 58.65 34.15 60 32.5 60ZM37.5 50C35.85 50 34.5 48.65 34.5 47C34.5 45.35 35.85 44 37.5 44C39.15 44 40.5 45.35 40.5 47C40.5 48.65 39.15 50 37.5 50ZM50 65C46.7 65 44 62.3 44 59C44 55.7 46.7 53 50 53C53.3 53 56 55.7 56 59C56 62.3 53.3 65 50 65ZM70 52.5H45V47.5H70V52.5ZM70 42.5H45V37.5H70V42.5Z" fill="#0EA5E9"/>
</svg>
