
<svg width="100" height="100" viewBox="0 0 100 100" fill="none" xmlns="http://www.w3.org/2000/svg">
  <rect width="100" height="100" rx="50" fill="#EEF2FF"/>
  <path d="M67.5 35H32.5C30.025 35 28 37.025 28 39.5V69.5C28 71.975 30.025 74 32.5 74H67.5C69.975 74 72 71.975 72 69.5V39.5C72 37.025 69.975 35 67.5 35ZM37.5 69.5C35.025 69.5 33 67.475 33 65C33 62.525 35.025 60.5 37.5 60.5C39.975 60.5 42 62.525 42 65C42 67.475 39.975 69.5 37.5 69.5ZM37.5 48.5C35.025 48.5 33 46.475 33 44C33 41.525 35.025 39.5 37.5 39.5C39.975 39.5 42 41.525 42 44C42 46.475 39.975 48.5 37.5 48.5ZM50 59C47.525 59 45.5 56.975 45.5 54.5C45.5 52.025 47.525 50 50 50C52.475 50 54.5 52.025 54.5 54.5C54.5 56.975 52.475 59 50 59ZM67.5 69.5H48.5V65H67.5V69.5ZM67.5 48.5H48.5V44H67.5V48.5Z" fill="#0EA5E9"/>
</svg>
