
<svg width="100" height="100" viewBox="0 0 100 100" fill="none" xmlns="http://www.w3.org/2000/svg">
  <rect width="100" height="100" rx="50" fill="#EEF2FF"/>
  <path d="M70 35H30C27.25 35 25 37.25 25 40V60C25 62.75 27.25 65 30 65H70C72.75 65 75 62.75 75 60V40C75 37.25 72.75 35 70 35ZM45 60H35C33.9 60 33 59.1 33 58V42C33 40.9 33.9 40 35 40H45C46.1 40 47 40.9 47 42V58C47 59.1 46.1 60 45 60ZM67 52.5H53C51.9 52.5 51 51.6 51 50.5V49.5C51 48.4 51.9 47.5 53 47.5H67C68.1 47.5 69 48.4 69 49.5V50.5C69 51.6 68.1 52.5 67 52.5ZM67 42.5H53C51.9 42.5 51 41.6 51 40.5V39.5C51 38.4 51.9 37.5 53 37.5H67C68.1 37.5 69 38.4 69 39.5V40.5C69 41.6 68.1 42.5 67 42.5Z" fill="#0EA5E9"/>
</svg>
