
<svg width="100" height="100" viewBox="0 0 100 100" fill="none" xmlns="http://www.w3.org/2000/svg">
  <rect width="100" height="100" rx="50" fill="#EEF2FF"/>
  <path d="M65 30H35C31.7 30 29 32.7 29 36V64C29 67.3 31.7 70 35 70H65C68.3 70 71 67.3 71 64V36C71 32.7 68.3 30 65 30ZM50 66C46.1 66 43 62.9 43 59C43 55.1 46.1 52 50 52C53.9 52 57 55.1 57 59C57 62.9 53.9 66 50 66ZM59 45C59 45.6 58.6 46 58 46H42C41.4 46 41 45.6 41 45V39C41 38.4 41.4 38 42 38H58C58.6 38 59 38.4 59 39V45Z" fill="#0EA5E9"/>
</svg>
